<svg version="1.2" xmlns="http://www.w3.org/2000/svg" viewBox="0 0 1359 528" width="1359" height="528">
	<style>
		.s0 { fill: none } 
		.s1 { fill: #ffffff } 
	</style>
	<g id="Layer_1-2">
		<path fill-rule="evenodd" class="s0" d="m-327-726h2048v2048h-2048z"/>
		<g>
			<g>
				<path class="s1" d="m632.25 315.49v87.78h-31.78v-84.32c0-20.77-11.01-31.78-26.74-31.78-17.3 0-29.58 13.21-29.58 34.29v81.8h-32.09v-84.32c0-20.77-11.01-31.78-26.74-31.78-16.99 0-29.57 13.21-29.57 34.29v81.8h-31.78v-138.43l30.52-4.72v18.25c9.44-12.27 23.28-19.19 39.64-19.19 17.93 0 32.41 8.18 40.9 23.28 10.07-14.79 26.43-23.28 45.94-23.28 31.15 0 51.28 21.08 51.28 56.32z"/>
				<path class="s1" d="m751.79 403.27l-0.94-9.44c-9.44 8.18-21.71 12.9-35.55 12.9-29.57 0-52.54-22.02-52.54-50.65 0-28.63 22.65-50.65 53.17-50.65 13.21 0 24.22 4.72 33.03 11.64v-7.24c0-16.99-7.87-25.8-30.52-25.8-11.96 0-22.97 2.52-33.98 6.29l4.41-25.48c11.64-3.46 22.65-5.03 33.98-5.03 36.81 0 56.32 16.67 56.32 47.82v69.22l1.26 26.43h-28.63zm-1.25-47.51c0-15.42-12.9-27.37-28.95-27.37-16.05 0-28.63 11.96-28.63 27.37 0 15.41 12.59 27.06 28.63 27.06 16.04 0 28.95-11.96 28.95-27.06z"/>
				<path class="s1" d="m959.12 175.17v228.1h-30.2v-19.51c-11.64 14.16-28.63 22.97-48.77 22.97-39.01 0-71.1-32.4-71.1-73.93 0-41.53 32.09-73.62 71.1-73.62 19.19 0 35.24 7.55 46.88 20.45v-99.74zm-29.57 157.62c0-25.48-19.51-45.62-44.68-45.62-25.17 0-44.68 20.14-44.68 45.62 0 25.48 19.51 45.93 44.68 45.93 25.17 0 44.68-20.14 44.68-45.93z"/>
				<path class="s1" d="m1141.58 175.17v228.1h-30.2v-19.51c-11.64 14.16-28.63 22.97-48.77 22.97-39.01 0-71.1-32.4-71.1-73.93 0-41.53 32.09-73.62 71.1-73.62 19.19 0 35.24 7.55 46.88 20.45v-99.74zm-29.57 157.62c0-25.48-19.51-45.62-44.68-45.62-25.17 0-44.68 20.14-44.68 45.62 0 25.48 19.51 45.93 44.68 45.93 25.17 0 44.68-20.14 44.68-45.93z"/>
				<path class="s1" d="m1302.65 356.39l10.38 25.48c-17.31 15.73-39.33 24.85-62.93 24.85-44.05 0-76.14-32.09-76.14-73.62 0-41.53 32.41-73.93 74.88-73.93 35.55 0 63.87 23.28 68.27 62.29l-108.86 35.24c7.55 14.47 22.34 24.22 42.16 24.22 18.25 0 35.87-7.55 52.23-24.54zm-99.73-24.54l80.86-26.43c-5.98-12.9-19.19-20.77-34.92-20.77-25.49 0-44.99 20.45-45.94 47.2z"/>
			</g>
			<g>
				<path class="s1" d="m1045.68 503.09v-8.78c5.47 3.68 12.55 5.38 18.4 5.38 6.32 0 10.48-1.89 10.48-6.32 0-2.65-1.42-4.34-5.47-5.38-4.06-1.04-11.98-1.7-16.8-3.78-4.81-2.08-7.08-5.85-7.08-11.04 0-9.34 7.93-14.35 18.59-14.35 5.85 0 12.36 1.42 16.61 3.68v8.31c-5.19-2.93-11.51-4.34-16.71-4.34-5.85 0-10 1.79-10 5.94 0 2.83 1.79 4.44 6.23 5.38 4.43 0.94 11.42 1.6 16.04 3.59 4.63 1.98 7.08 5.57 7.08 11.32 0 9.91-8.96 14.63-19.44 14.63-5.95 0-12.93-1.23-17.93-4.24z"/>
				<path class="s1" d="m1089.47 459.86h8.78v-12.36l8.49-2.08v14.44h13.97v7.74h-13.97v22.93c0 6.14 2.45 9.16 7.45 9.16 2.36 0 4.72-0.66 6.51-1.42v7.46c-1.98 0.94-5.1 1.6-8.3 1.6-9.53 0-14.16-5.85-14.16-16.04v-23.69h-8.78c0 0 0-7.74 0.01-7.74z"/>
				<path class="s1" d="m1163.84 501.67l-0.19-0.1c-4.34 3.59-9.81 5.76-15.85 5.76-5.1 0-9.34-1.51-12.46-4.81-3.12-3.3-4.15-7.27-4.15-13.68v-28.97h8.49v27.47c0 4.62 0.76 7.45 2.64 9.43 1.89 1.98 4.53 2.83 7.83 2.83 5.19 0 10-2.45 13.68-5.66v-34.07h8.49v46.43h-8.49v-4.62z"/>
				<path class="s1" d="m1220.28 502.8l-0.19-0.09c-3.21 2.74-7.93 4.62-13.59 4.62-12.18 0-22.27-9.06-22.27-23.5 0-14.44 10-25.01 24.25-25.01 4.62 0 8.31 1.23 11.51 2.74l0.19-0.09v-27.28h8.49v72.1h-8.4c0 0 0-3.49 0.01-3.49zm-0.09-7.74v-25.57c-3.02-1.79-6.98-3.12-11.23-3.12-10.1 0-16.14 7.64-16.14 17.08 0 9.44 5.85 16.33 15.38 16.33 4.81 0 8.87-1.89 11.99-4.72z"/>
				<path class="s1" d="m1241.9 443.91c0-3.3 2.64-5.94 5.94-5.94 3.3 0 5.94 2.64 5.94 5.94 0 3.3-2.64 5.94-5.94 5.94-3.3 0-5.94-2.64-5.94-5.94zm1.7 15.95h8.49v46.43h-8.49z"/>
				<path class="s1" d="m1263.79 483.08c0-13.68 10.48-24.26 24.54-24.26 14.06 0 24.54 10.57 24.54 24.26 0 13.69-10.48 24.26-24.54 24.26-14.06 0-24.54-10.57-24.54-24.26zm40.58 0c0-9.34-6.8-16.52-16.04-16.52-9.24 0-16.04 7.17-16.04 16.52 0 9.35 6.8 16.52 16.04 16.52 9.24 0 16.04-7.17 16.04-16.52z"/>
			</g>
			<g>
				<path class="s1" d="m76.87 350.83v52.43h52.43c-28.96 0-52.43-23.48-52.43-52.43z"/>
				<path class="s1" d="m76.87 88.67v262.17c0-28.96 23.48-52.43 52.43-52.43 28.95 0 52.43 23.48 52.43 52.43 0 28.95-23.48 52.43-52.43 52.43h262.17v-314.6z"/>
			</g>
		</g>
	</g>
</svg>